<svg width="642" height="542" viewBox="0 0 642 542" fill="none" xmlns="http://www.w3.org/2000/svg">
<path opacity="0.3" fill-rule="evenodd" clip-rule="evenodd" d="M344.616 16.1237C405.929 14.8611 472.102 22.8049 517.421 61.27C561.078 98.3238 556.024 160.946 576.162 212.65C597.311 266.952 657.517 316.598 638.25 371.504C618.981 426.416 541.613 437.533 487.39 465.624C440.879 489.72 397.722 520.267 344.616 523.627C289.022 527.143 238.175 505.177 187.013 484.625C120.28 457.819 20.8408 451.642 2.45593 386.182C-16.2272 319.66 76.7424 273.046 110.4 211.842C136.573 164.246 134.534 103.992 177.277 68.2742C222.149 30.778 284.333 17.365 344.616 16.1237Z" fill="#DEE8FE"/>
<path d="M567.741 43.3507C561.786 38.4106 552.752 35.7362 545.127 35.1977C491.013 31.3533 483.11 144.585 491.403 169.899C499.695 195.212 494.315 203.514 451.703 216.755C409.09 229.997 429.534 255.477 434.728 270.39C439.922 285.304 450.2 297.895 419.145 312.697C388.071 327.517 398.868 336.692 398.868 336.692C398.868 336.692 456.155 395.36 453.001 376.584C449.829 357.808 455.561 329.43 506.93 327.276C529.062 326.347 562.937 315.78 570.45 292.064C572.194 286.548 573.418 278.098 572.082 272.396C570.246 264.466 565.033 258.226 562.157 250.76C555.423 233.377 572.305 220.637 582.007 209.011C587.072 202.938 592.136 196.716 596.032 189.789C604.084 175.414 601.078 160.018 592.303 146.777C588.092 140.425 582.249 133.684 580.412 126.106C578.446 117.972 580.152 106.848 580.635 98.4902C581.006 91.9344 581.618 85.3786 581.265 78.8042C580.56 66.5468 577.685 51.578 567.741 43.3507Z" fill="url(#paint0_linear)"/>
<g opacity="0.8">
<g opacity="0.8">
<path opacity="0.8" d="M394.36 369.62C393.989 369.75 393.563 369.601 393.377 369.23C393.173 368.84 393.322 368.357 393.711 368.153C393.952 368.023 418.069 355.319 444.987 334.408C469.772 315.13 502.088 284.747 515.167 249.405C526.093 219.894 536.055 171.106 542.493 115.558C548.281 65.7484 549.19 28.902 546.723 22.0676C546.574 21.6591 546.797 21.1948 547.205 21.0462C547.613 20.8976 548.077 21.1205 548.225 21.529C551.101 29.5335 549.283 70.9114 544.07 115.744C537.614 171.422 527.615 220.34 516.651 249.962C503.442 285.657 470.903 316.282 445.933 335.689C418.922 356.694 394.694 369.453 394.453 369.564C394.435 369.583 394.397 369.601 394.36 369.62Z" fill="white"/>
</g>
<g opacity="0.8">
<path opacity="0.8" d="M542.399 125.215C541.991 125.364 541.564 125.252 541.416 124.844C541.212 124.305 521.047 69.9642 495.037 57.6883C494.629 57.5025 494.481 57.0382 494.666 56.6482C494.852 56.2397 495.334 56.0911 495.742 56.2768C522.345 68.8313 542.102 122.021 542.937 124.287C543.067 124.695 542.826 125.067 542.399 125.215Z" fill="white"/>
</g>
<g opacity="0.8">
<path opacity="0.8" d="M532.567 188.229C532.252 188.34 531.899 188.248 531.677 187.988C531.399 187.653 531.436 187.133 531.788 186.855C531.937 186.725 546.796 174.542 565.106 164.309C589.872 150.473 608.85 146.628 621.502 152.831C621.892 153.017 622.059 153.5 621.873 153.908C621.669 154.298 621.206 154.466 620.798 154.28C591.653 139.98 533.384 187.616 532.79 188.099C532.734 188.155 532.66 188.192 532.567 188.229Z" fill="white"/>
</g>
<g opacity="0.8">
<path opacity="0.8" d="M467.898 317.024C467.823 317.062 467.731 317.062 467.638 317.08C467.193 317.08 466.84 316.727 466.822 316.3C466.822 316.059 466.413 292.751 461.534 268.199C457.064 245.672 447.843 217.461 429.255 210.961C428.847 210.813 428.624 210.367 428.773 209.94C428.921 209.513 429.366 209.308 429.793 209.457C445.283 214.88 456.507 234.547 463.111 267.902C468.009 292.603 468.417 316.04 468.436 316.282C468.436 316.597 468.213 316.894 467.898 317.024Z" fill="white"/>
</g>
<g opacity="0.8">
<path opacity="0.8" d="M500.975 279.361C500.659 279.472 500.27 279.38 500.066 279.082C499.806 278.729 499.88 278.228 500.233 277.968C502.811 276.055 563.585 231.334 587.294 235.606C587.721 235.68 588.018 236.107 587.943 236.534C587.869 236.962 587.442 237.259 587.016 237.184C563.975 233.043 501.81 278.804 501.197 279.268C501.105 279.287 501.049 279.324 500.975 279.361Z" fill="white"/>
</g>
</g>
<path d="M615.234 210.125C611.302 203.477 603.714 197.887 596.702 194.785C547.077 172.852 501.366 276.724 500.624 303.337C499.882 329.95 492.016 335.968 447.437 333.981C402.858 331.993 413.488 362.915 413.34 378.701C413.192 394.487 418.608 409.828 384.363 413.245C350.117 416.662 357.185 428.957 357.185 428.957C357.185 428.957 391.264 503.578 394.64 484.82C398.016 466.063 412.987 441.325 462.056 456.703C483.186 463.333 518.637 464.856 533.72 445.077C537.226 440.471 541.233 432.95 541.901 427.118C542.847 419.039 540.064 411.388 539.879 403.383C539.433 384.737 559.617 378.46 572.678 370.827C579.504 366.834 586.368 362.692 592.361 357.492C604.809 346.702 607.165 331.176 603.38 315.743C601.562 308.333 598.334 300.013 599.169 292.268C600.059 283.948 605.439 274.068 608.704 266.342C611.264 260.288 614.066 254.345 615.939 248.03C619.446 236.293 621.82 221.25 615.234 210.125Z" fill="url(#paint1_linear)"/>
<g opacity="0.8">
<g opacity="0.8">
<path opacity="0.8" d="M341.804 458.411C341.415 458.411 341.062 458.114 341.007 457.724C340.951 457.279 341.248 456.889 341.693 456.814C341.953 456.777 368.945 452.988 401.336 442.421C431.185 432.69 471.849 415.028 496.096 386.204C516.354 362.135 542.215 319.606 567.055 269.518C589.335 224.612 602.637 190.254 602.637 182.974C602.637 182.528 602.989 182.175 603.434 182.175C603.879 182.175 604.232 182.528 604.232 182.974C604.232 191.48 588.519 229.793 568.483 270.224C543.588 320.423 517.653 363.064 497.32 387.226C472.814 416.346 431.853 434.138 401.799 443.944C369.279 454.549 342.175 458.356 341.897 458.393C341.879 458.411 341.841 458.411 341.804 458.411Z" fill="white"/>
</g>
<g opacity="0.8">
<path opacity="0.8" d="M563.716 278.748C563.271 278.748 562.918 278.414 562.918 277.968C562.918 277.392 562.306 219.393 541.955 199.02C541.64 198.704 541.64 198.202 541.955 197.887C542.271 197.571 542.772 197.571 543.087 197.887C563.883 218.706 564.495 275.535 564.514 277.931C564.514 278.414 564.161 278.748 563.716 278.748Z" fill="white"/>
</g>
<g opacity="0.8">
<path opacity="0.8" d="M533.163 334.538C532.829 334.538 532.532 334.333 532.402 333.999C532.254 333.59 532.476 333.126 532.884 332.978C533.07 332.922 551.158 326.459 571.861 323.042C599.836 318.418 619 321.203 628.814 331.343C629.129 331.659 629.11 332.16 628.795 332.476C628.48 332.792 627.979 332.773 627.663 332.458C605.086 309.132 534.127 334.222 533.422 334.482C533.348 334.538 533.255 334.538 533.163 334.538Z" fill="white"/>
</g>
<g opacity="0.8">
<path opacity="0.8" d="M428.792 433.841C428.699 433.841 428.625 433.822 428.532 433.804C428.105 433.655 427.883 433.21 428.031 432.782C428.105 432.56 435.6 410.478 439.31 385.722C442.724 363.008 443.577 333.349 428.272 320.943C427.92 320.665 427.883 320.163 428.161 319.81C428.439 319.458 428.94 319.42 429.293 319.699C442.037 330.043 445.952 352.348 440.887 385.982C437.14 410.886 429.608 433.08 429.534 433.302C429.422 433.618 429.126 433.841 428.792 433.841Z" fill="white"/>
</g>
<g opacity="0.8">
<path opacity="0.8" d="M471.747 409.469C471.498 409.469 471.275 409.257 471.209 408.921C471.117 408.515 471.288 408.091 471.589 407.967C473.753 407.084 524.875 386.627 539.612 398.092C539.887 398.304 539.979 398.764 539.822 399.135C539.665 399.506 539.324 399.629 539.048 399.417C524.717 388.288 472.442 409.222 471.917 409.434C471.852 409.469 471.799 409.469 471.747 409.469Z" fill="white"/>
</g>
</g>
<path d="M365.185 12.9327L364.556 17.4187C362.488 17.5202 360.44 17.784 358.453 18.2306L356.77 14.0491C356.304 12.9124 355.006 12.3643 353.871 12.8312L346.693 15.7948C345.537 16.2617 344.99 17.5811 345.436 18.7178L347.139 22.9398C345.395 24.0563 343.753 25.2945 342.232 26.6951L338.623 23.8939C337.65 23.1428 336.231 23.3255 335.48 24.3201L330.655 30.4909C329.884 31.4855 330.046 32.8861 331.02 33.6574L334.629 36.4789C333.676 38.2855 332.865 40.1936 332.196 42.2031L327.613 41.5941C326.376 41.4318 325.241 42.3046 325.058 43.5428L323.903 51.3171C323.72 52.5553 324.572 53.7123 325.809 53.8747L330.411 54.4837C330.472 56.5947 330.695 58.6449 331.101 60.6544L326.782 62.461C325.626 62.9481 325.038 64.2878 325.504 65.4651L328.384 72.7929C328.85 73.9702 330.168 74.5183 331.324 74.0311L335.643 72.2245C336.737 73.9905 337.974 75.655 339.353 77.218L336.474 80.9529C335.703 81.9678 335.866 83.409 336.839 84.1803L343.003 89.0317C343.996 89.803 345.416 89.6203 346.206 88.6054L349.045 84.8908C350.87 85.8651 352.776 86.6568 354.783 87.3063L354.134 91.9547C353.952 93.2335 354.824 94.3905 356.061 94.5529L363.847 95.5678C365.083 95.7302 366.239 94.837 366.422 93.5582L367.05 88.9505C369.159 88.8693 371.247 88.5851 373.275 88.1182L374.978 92.3809C375.445 93.5582 376.783 94.1266 377.939 93.6191L385.197 90.5338C386.353 90.0466 386.921 88.6866 386.434 87.5093L384.731 83.2872C386.515 82.1505 388.178 80.8311 389.719 79.3899L393.267 82.1505C394.261 82.9218 395.68 82.7189 396.451 81.7242L401.215 75.4114C401.966 74.3965 401.783 72.9553 400.79 72.1839L397.262 69.4437C398.215 67.5762 399.026 65.6072 399.654 63.5774L404.054 64.1457C405.291 64.3081 406.426 63.415 406.589 62.1768L407.582 54.3822C407.744 53.144 406.873 51.987 405.636 51.8449L401.256 51.2765C401.175 49.1452 400.891 47.0544 400.445 45.0449L404.52 43.3398C405.656 42.8526 406.203 41.5332 405.737 40.3762L402.756 33.1906C402.29 32.0336 400.972 31.5058 399.837 31.9727L395.741 33.6777C394.626 31.9321 393.369 30.2676 391.97 28.7452L394.666 25.2133C395.417 24.239 395.234 22.8181 394.261 22.067L388.137 17.3578C387.164 16.6067 385.765 16.7894 384.995 17.7637L382.278 21.2957C380.473 20.3619 378.567 19.5703 376.58 18.9613L377.188 14.516C377.35 13.2981 376.499 12.1817 375.282 12.0193L367.638 11.0246C366.482 10.842 365.367 11.6945 365.185 12.9327ZM338.258 49.1858C340.468 33.7995 354.56 23.021 369.767 25.0306C384.954 27.0198 395.64 41.0664 393.592 56.4526C391.544 71.9404 377.411 82.9421 362.042 80.9123C346.673 78.923 336.028 64.6735 338.258 49.1858Z" fill="#D8DEE8"/>
<path d="M259.827 20.5546L258.854 27.4764C255.65 27.6185 252.487 28.0448 249.426 28.7349L246.81 22.28C246.1 20.514 244.093 19.6818 242.309 20.4125L231.218 24.9797C229.433 25.7104 228.582 27.7403 229.291 29.5063L231.927 36.0424C229.251 37.7474 226.696 39.6961 224.344 41.8477L218.768 37.5242C217.268 36.3671 215.078 36.6513 213.902 38.1737L206.46 47.714C205.264 49.2364 205.528 51.4286 207.028 52.6059L212.624 56.9498C211.144 59.751 209.887 62.7146 208.873 65.7796L201.777 64.8459C199.871 64.6023 198.107 65.942 197.823 67.8704L196.038 79.9074C195.755 81.8357 197.073 83.6017 198.979 83.8453L206.095 84.779C206.177 88.0268 206.541 91.2339 207.17 94.3396L200.499 97.1205C198.695 97.8715 197.823 99.942 198.532 101.749L202.973 113.055C203.683 114.861 205.73 115.734 207.535 114.963L214.206 112.162C215.889 114.902 217.795 117.48 219.924 119.875L215.463 125.66C214.267 127.223 214.51 129.476 216.031 130.674L225.581 138.164C227.101 139.362 229.332 139.057 230.528 137.494L234.928 131.75C237.746 133.252 240.707 134.49 243.809 135.485L242.815 142.65C242.532 144.619 243.89 146.405 245.816 146.669L257.86 148.252C259.787 148.496 261.571 147.116 261.834 145.147L262.808 138.022C266.092 137.88 269.296 137.454 272.439 136.743L275.075 143.32C275.805 145.147 277.853 145.999 279.657 145.248L290.89 140.478C292.695 139.707 293.546 137.616 292.796 135.809L290.16 129.273C292.898 127.507 295.493 125.498 297.885 123.265L303.38 127.548C304.921 128.746 307.111 128.441 308.287 126.878L315.647 117.115C316.823 115.552 316.539 113.319 314.999 112.141L309.564 107.919C311.045 105.037 312.282 101.992 313.255 98.8256L320.068 99.7187C321.973 99.9623 323.717 98.6023 323.981 96.6739L325.522 84.6166C325.765 82.6883 324.427 80.9223 322.521 80.6787L315.728 79.7856C315.587 76.4972 315.181 73.2698 314.471 70.1438L320.757 67.505C322.521 66.754 323.373 64.7241 322.622 62.9378L318.02 51.8143C317.29 50.0483 315.262 49.1958 313.498 49.9265L307.172 52.5653C305.448 49.8656 303.502 47.308 301.332 44.9331L305.509 39.4728C306.665 37.9504 306.381 35.7785 304.881 34.6215L295.432 27.3546C293.932 26.1976 291.762 26.4818 290.586 28.0042L286.369 33.4848C283.57 32.0436 280.63 30.8257 277.548 29.8716L278.481 23.0107C278.745 21.123 277.427 19.3773 275.521 19.1337L263.72 17.591C261.834 17.3272 260.091 18.6669 259.827 20.5546ZM218.18 76.6393C221.586 52.8698 243.383 36.1845 266.883 39.2698C290.383 42.3552 306.888 64.0543 303.725 87.8644C300.542 111.817 278.704 128.806 254.961 125.701C231.218 122.575 214.753 100.551 218.18 76.6393Z" fill="#D8DEE8"/>
<path d="M288.357 77.2123L241.088 470.47C240.383 476.357 244.446 481.65 250.123 482.226L446.971 503.862C459.03 504.605 465.634 498.439 466.376 492.18L516.001 74.0737C516.743 67.8336 510.825 62.1877 498.711 62.1877L300.063 66.385C294.331 66.4778 289.062 71.3436 288.357 77.2123Z" fill="url(#paint2_linear)"/>
<path d="M279.49 76.5439L231.961 471.77C231.256 477.694 235.319 483.006 241.033 483.582L445.116 503.918C451.516 504.549 457.379 499.925 458.121 493.61L508.024 73.3495C508.766 67.0908 504.072 62.0393 497.598 62.1507L291.251 65.6422C285.482 65.7351 280.195 70.638 279.49 76.5439Z" fill="url(#paint3_linear)"/>
<path d="M283.367 98.3286L239.307 464.787C238.639 470.321 242.461 475.28 247.804 475.8L439.736 494.483C445.691 495.059 451.127 490.731 451.832 484.863L497.95 96.6386C498.637 90.807 494.277 86.0898 488.267 86.1455L294.368 88.207C288.969 88.2813 284.016 92.8313 283.367 98.3286Z" fill="#0056B3"/>
<path d="M386.29 76.265C386.03 78.3636 387.551 80.0537 389.666 80.0351C391.781 80.0165 393.71 78.2708 393.951 76.1721C394.211 74.0549 392.69 72.3834 390.575 72.402C388.46 72.4206 386.531 74.1664 386.29 76.265Z" fill="url(#paint4_linear)"/>
<path d="M33 75.4887C33 35.5466 66.5677 3.18604 106.849 3.18604C145.946 3.18604 176.795 33.8576 176.795 71.6884C176.795 109.519 145.946 141.822 106.849 143.895C66.5677 146.026 33 115.431 33 75.4887Z" fill="url(#paint5_linear)"/>
<path d="M37.3474 72.3027C37.3474 32.3606 69.9534 0 109.069 0C147.039 0 177 30.6715 177 68.5023C177 106.333 147.039 138.636 109.069 140.709C69.9349 142.84 37.3474 112.245 37.3474 72.3027Z" fill="url(#paint6_linear)"/>
<g opacity="0.5">
<path opacity="0.5" d="M48.5001 72.0149C48.5001 38.4643 75.8906 11.2668 108.756 11.2668C140.659 11.2668 165.83 37.044 165.83 68.8095C165.83 100.594 140.659 127.734 108.756 129.462C75.8906 131.266 48.5001 105.565 48.5001 72.0149Z" fill="white"/>
</g>
<path opacity="0.5" d="M106.499 16.4107C138.403 16.4107 163.574 42.1878 163.574 73.9534C163.574 81.5157 162.131 88.7901 159.542 95.5463C163.574 87.4082 165.849 78.3104 165.849 68.7903C165.849 37.0055 140.677 11.2476 108.774 11.2476C83.4182 11.2476 61.3541 27.4278 52.5692 50.23C62.5008 30.1917 83.1038 16.4107 106.499 16.4107Z" fill="white"/>
<path d="M81.4937 63.7996V93.0892C81.4937 101.554 88.3551 108.233 96.8071 108.003L117.743 107.427C126.084 107.197 132.816 100.229 132.816 91.8417V62.8591L81.4937 63.7996ZM100.783 94.0681L104.667 81.8417C103.003 80.9396 101.875 79.193 101.875 77.1393C101.875 74.1258 104.297 71.6499 107.294 71.5923C110.29 71.5347 112.712 73.9147 112.712 76.9089C112.712 78.9435 111.584 80.7477 109.92 81.7266L113.804 93.761L100.783 94.0681Z" fill="white"/>
<path d="M127.582 67.4005C125.241 67.4449 123.349 65.3794 123.349 62.7808C123.349 52.8309 115.996 44.8132 106.946 44.9464C97.8571 45.0797 90.4455 53.3417 90.4455 63.3583C90.4455 65.9568 88.5146 68.1112 86.135 68.1556C83.7555 68.2 81.8246 66.1123 81.8246 63.5138C81.8246 48.2557 93.1176 35.7072 106.946 35.5295C120.697 35.3518 131.814 47.5006 131.814 62.6032C131.814 65.2017 129.922 67.356 127.582 67.4005Z" fill="white"/>
<path d="M208.256 248.643C208.256 248.643 206.565 242.289 207.773 240.684C208.98 239.057 216.294 232.571 215.591 234.682C214.888 236.793 213.834 238.2 213.834 238.2C213.834 238.2 217.787 240.025 215.24 242.773C212.714 245.521 211.857 246.159 211.726 248.621C211.572 251.106 209.947 251.963 208.256 248.643Z" fill="url(#paint7_linear)"/>
<path d="M137.911 522.547C137.911 522.547 137.01 528.044 137.12 529.979C137.23 531.935 158.885 532.925 159.104 531.474C159.324 530 155.524 527.692 152.845 526.856C150.166 526.043 142.347 523.844 142.347 523.844L137.911 522.547Z" fill="url(#paint8_linear)"/>
<path d="M143.161 517.073L142.48 523.888C142.48 523.888 139.954 525.559 137.758 524.262L136.66 516.831L143.161 517.073Z" fill="url(#paint9_linear)"/>
<path d="M99.2828 531.452C99.2828 531.452 98.3824 536.948 98.4922 538.883C98.602 540.84 120.257 541.829 120.476 540.378C120.696 538.905 116.896 536.596 114.217 535.761C111.538 534.947 103.719 532.749 103.719 532.749L99.2828 531.452Z" fill="url(#paint10_linear)"/>
<path d="M104.531 525.977L103.85 532.793C103.85 532.793 101.324 534.464 99.1283 533.166L98.0302 525.735L104.531 525.977Z" fill="url(#paint11_linear)"/>
<path d="M139.231 338.919C141.735 343.997 144.238 349.076 146.742 354.155C148.763 383.133 149.751 414.661 149.114 448.366C148.631 473.452 147.291 497.197 145.381 519.491C141.998 519.337 138.594 519.183 135.212 519.029C130.315 509.289 124.517 494.515 123.99 476.288C123.44 457.27 129.195 454.742 128.821 436.537C128.338 412.946 118.455 406.636 113.206 378.252C111.186 367.391 109.846 353.21 111.449 336.016C120.695 336.984 129.963 337.951 139.231 338.919Z" fill="url(#paint12_linear)"/>
<path d="M111.429 336.016C116.436 336.544 121.444 337.072 126.451 337.577C135.455 353.276 137.981 369.633 136.4 376.867C134.16 387.09 128.252 390.366 128.559 400.634C128.889 410.791 134.862 413.43 138.662 425.412C141.297 433.701 140.595 441.33 139.101 456.237C136.092 486.27 128.845 495.46 134.906 505.31C136.641 508.102 139.738 511.444 145.822 513.994C145.668 515.841 145.536 517.688 145.36 519.513C141.978 519.359 138.574 519.205 135.192 519.051C130.294 509.311 124.496 494.537 123.969 476.31C123.42 457.292 129.174 454.764 128.801 436.559C128.318 412.968 118.435 406.658 113.186 378.274C111.165 367.413 109.804 353.232 111.429 336.016Z" fill="url(#paint13_linear)"/>
<path d="M125.766 348.065C121.066 373.701 116.915 401.162 113.687 430.271C109.778 465.405 107.691 498.538 106.879 529.319C103.145 529.429 99.4335 529.539 95.7 529.627C81.0294 500.561 80.1289 480.862 82.2373 468.022C83.0499 463.075 85.268 453.379 85.7732 438.89C86.1246 428.798 85.4877 421.103 84.6751 411.869C82.9181 391.62 80.7658 387.2 80.4584 371.7C80.1729 357.167 80.107 349.802 84.2578 345.514C95.1949 334.214 123.614 347.075 125.766 348.065Z" fill="url(#paint14_linear)"/>
<path d="M206.324 247.676C208.806 247.5 211.288 247.324 213.747 247.148C219.589 270.783 215.394 293.715 202.217 302.135C181.617 315.305 143.315 290.483 135.035 263.462C131.39 251.589 132.224 234.484 139.494 231.142C141.514 230.219 144.655 230.065 151.441 233.89C171.734 245.301 172.261 266.848 182.583 268.673C187.151 269.508 194.553 266.584 206.324 247.676Z" fill="url(#paint15_linear)"/>
<path d="M149.598 359.366C153.155 353.43 148.675 347.713 147.665 336.5C146.501 323.77 151.398 321.66 156.252 300.553C159.48 286.526 162.555 273.048 158.865 257.306C157.087 249.743 154.1 236.947 143.514 230.747C138.045 227.559 130.578 227.867 115.886 228.636C97.7012 229.582 88.609 230.065 81.8227 233.649C80.8344 234.177 60.2121 245.412 58.7845 263.704C57.335 282.348 77.606 284.833 80.3073 309.699C81.5152 320.846 79.363 338.017 77.9574 349.142C76.6177 359.828 75.6733 362.554 77.7817 365.808C82.8549 373.613 98.404 371.393 129.48 366.929C141.691 365.17 146.94 363.785 149.598 359.366Z" fill="url(#paint16_linear)"/>
<g style="mix-blend-mode:multiply" opacity="0.3">
<path d="M102.291 305.698C100.974 310.535 96.2517 314.162 92.9574 325.947C92.2546 328.497 87.1814 346.614 93.748 351.055C97.5475 353.627 100.952 348.747 110.154 348.109C126.098 347.01 133.697 360.421 144.107 356.75C145.908 356.112 148.302 354.749 150.674 351.649C151.157 354.463 151.069 356.881 149.575 359.366C146.918 363.785 141.669 365.17 129.48 366.929C98.404 371.37 82.8549 373.591 77.7817 365.808C75.6733 362.576 76.5957 359.828 77.9574 349.142C79.3629 338.017 81.5152 320.846 80.3073 309.699C77.606 284.855 57.335 282.348 58.7845 263.704C59.1798 258.713 61.0027 254.294 63.4405 250.424C89.158 260.846 106.42 290.483 102.291 305.698Z" fill="url(#paint17_linear)"/>
</g>
<path d="M69.8096 342.348L74.9487 345.646C75.8711 344.569 78.0014 342.414 81.3616 341.689C85.1171 340.853 89.4436 342.04 89.5534 343.25C89.6413 344.217 87.0058 345.184 86.5886 345.338C83.3162 346.547 80.8784 345.536 79.5387 346.855C79.0775 347.317 78.4846 348.196 77.1449 348.988C76.7935 349.208 76.4201 349.384 76.2225 349.472C74.0263 350.329 70.2708 346.503 69.9413 346.174L69.8096 342.348Z" fill="url(#paint18_linear)"/>
<path d="M85.0065 274.785C88.7181 265.858 91.3096 252.205 85.4238 231.912C46.6828 247.192 26.939 283.425 34.6476 312.139C41.0166 335.818 64.1426 347.339 69.3037 349.758C70.5116 347.031 71.6976 344.283 72.9055 341.557C66.9318 334.895 60.1895 325.023 61.1338 313.788C62.4735 298.178 77.4736 292.857 85.0065 274.785Z" fill="url(#paint19_linear)"/>
<path d="M112.167 200.383C112.167 200.383 111.723 209.89 108.684 216.997C105.93 223.427 92.0313 229.718 89.1187 231.164C86.2062 232.61 94.0898 234.534 102.511 235.364C110.932 236.195 135.024 234.318 139.361 231.211C143.698 228.104 135.879 228.35 129.864 226.196C123.849 224.042 120.366 212.628 121.443 207.429C122.487 202.199 112.167 200.383 112.167 200.383Z" fill="url(#paint20_linear)"/>
<path d="M125.702 196.442C130.249 192.241 130.875 191.747 131.402 190.295C133.378 184.487 128.568 176.518 122.276 174.541C121.947 174.448 117.73 173.181 116.082 174.88C114.699 176.332 116.741 178.371 115.753 181.182C114.863 183.808 112.426 184.024 107.879 187.484C104.156 190.326 101.85 192.117 101.29 194.589C100.203 199.717 106.825 207.161 112.689 206.976C114.863 206.945 115.424 205.926 125.702 196.442Z" fill="url(#paint21_linear)"/>
<path d="M113.497 208.104C113.497 208.104 118.133 213.345 125.198 211.609C131.506 210.062 129.897 195.538 125.293 193.233C123.747 192.475 120.94 192.538 118.827 193.549C117.597 194.149 117.25 194.78 115.169 195.727C113.276 196.611 112.677 196.485 112.173 197.085C111.542 197.843 111.258 199.485 113.245 203.463C111.794 202.452 110.249 202.231 109.303 202.894C109.145 202.989 108.767 203.368 108.609 203.873C108.01 205.673 109.87 207.473 113.497 208.104Z" fill="url(#paint22_linear)"/>
<g style="mix-blend-mode:multiply">
<path d="M461.29 121.915L462.255 127.096L442.516 127.152L271.176 127.561C266.761 127.579 262.717 131.219 262.105 135.714L221.181 409.369C220.568 413.9 227.618 420.809 231.996 421.143L308.019 426.993V426.9L421.72 435.629L421.999 435.741C426.859 436.112 431.311 432.583 431.942 427.811V427.829L470.251 135.658C470.863 130.904 466.169 121.915 461.29 121.915Z" fill="url(#paint23_linear)"/>
</g>
<path d="M428.066 422.129C427.436 426.92 422.983 430.486 418.123 430.115L227.934 415.499C223.556 415.164 220.514 411.208 221.108 406.695L258.284 130.125C258.897 125.63 262.941 121.99 267.338 121.972L458.602 121.452C463.481 121.433 466.95 125.278 466.319 130.013L428.066 422.129Z" fill="#91B3FA"/>
<path d="M430.589 270.025C430.274 272.402 428.066 274.166 425.655 274.073L258.266 267.963C256.058 267.889 254.5 266.069 254.797 263.803L258.08 239.381C258.377 237.115 260.399 235.592 262.607 235.648L430.144 240.31C432.556 240.384 434.281 242.093 433.966 244.451L430.589 270.025Z" fill="white"/>
<path d="M424.115 319.648C423.8 322.025 421.592 324.049 419.181 323.938L251.903 315.674C249.696 315.562 248.156 313.445 248.471 311.179L251.792 286.293C252.089 284.027 254.129 282.096 256.337 282.17L423.707 288.93C426.119 289.023 427.825 291.215 427.529 293.592L424.115 319.648Z" fill="white"/>
<path opacity="0.1" d="M434.003 244.34C433.613 244.21 433.186 244.135 432.723 244.135L265.185 239.474C262.978 239.418 260.956 240.941 260.659 243.207L257.357 267.628C257.357 267.684 257.338 267.758 257.338 267.814C255.631 267.331 254.555 265.716 254.796 263.784L258.099 239.362C258.395 237.097 260.418 235.574 262.625 235.629L430.163 240.291C432.537 240.365 434.244 242.018 434.003 244.34Z" fill="url(#paint24_linear)"/>
<path opacity="0.1" d="M427.548 293.016C427.14 292.849 426.713 292.756 426.25 292.738L258.879 285.978C256.672 285.885 254.631 287.835 254.334 290.101L251.014 314.987C250.995 315.154 250.977 315.302 250.977 315.451C249.27 314.894 248.194 313.074 248.454 311.142L251.774 286.256C252.071 283.99 254.112 282.04 256.319 282.133L423.689 288.893C425.934 289.005 427.567 290.862 427.548 293.016Z" fill="url(#paint25_linear)"/>
<g style="mix-blend-mode:multiply">
<path d="M379.63 359.856C380.131 356.105 377.478 352.65 373.712 352.446L287.114 347.469C283.534 347.264 280.213 350.292 279.731 353.932L276.151 380.898C275.668 384.557 278.154 388.048 281.735 388.289L368.277 394.214C372.043 394.474 375.493 391.298 375.994 387.547L379.63 359.856Z" fill="url(#paint26_linear)"/>
</g>
<g style="mix-blend-mode:multiply">
<path d="M386.16 178.206C385.029 186.823 380.595 194.605 374.306 200.325C367.535 206.491 358.593 210.242 349.317 210.075C340.079 209.889 332.306 205.859 327.315 199.545C322.715 193.732 320.451 185.987 321.583 177.5C323.939 159.876 340.116 145.612 357.869 145.668C375.809 145.705 388.535 160.266 386.16 178.206Z" fill="url(#paint27_linear)"/>
</g>
<path d="M368.907 168.4C367.887 176.126 360.763 182.31 353.027 182.217C345.328 182.124 339.93 175.829 340.95 168.177C341.971 160.507 349.02 154.322 356.719 154.36C364.455 154.397 369.928 160.674 368.907 168.4Z" fill="white"/>
<path d="M374.324 200.325C367.553 206.491 358.611 210.242 349.336 210.075C340.097 209.889 332.324 205.859 327.334 199.545C333.048 191.577 342.472 186.284 352.471 186.414C362.544 186.526 370.651 192.116 374.324 200.325Z" fill="white"/>
<defs>
<linearGradient id="paint0_linear" x1="457.707" y1="-56.3451" x2="503.815" y2="150.511" gradientUnits="userSpaceOnUse">
<stop stop-color="#13E6FC"/>
<stop offset="1" stop-color="#0DA3B3"/>
</linearGradient>
<linearGradient id="paint1_linear" x1="434.848" y1="113.329" x2="461.849" y2="295.571" gradientUnits="userSpaceOnUse">
<stop stop-color="#13E6FC"/>
<stop offset="1" stop-color="#0DA3B3"/>
</linearGradient>
<linearGradient id="paint2_linear" x1="380.981" y1="272.882" x2="458.561" y2="281.336" gradientUnits="userSpaceOnUse">
<stop stop-color="#444B8C"/>
<stop offset="0.9964" stop-color="#26264F"/>
</linearGradient>
<linearGradient id="paint3_linear" x1="303.005" y1="306.526" x2="773.285" y2="1017.93" gradientUnits="userSpaceOnUse">
<stop stop-color="#050280"/>
<stop offset="0.1426" stop-color="#040173"/>
<stop offset="0.4026" stop-color="#040166"/>
<stop offset="0.7479" stop-color="#030159"/>
<stop offset="1" stop-color="#03014D"/>
</linearGradient>
<linearGradient id="paint4_linear" x1="383.854" y1="80.501" x2="398.768" y2="59.0719" gradientUnits="userSpaceOnUse">
<stop stop-color="#FF928E"/>
<stop offset="1" stop-color="#FE7062"/>
</linearGradient>
<linearGradient id="paint5_linear" x1="176.336" y1="2.44238" x2="73.3312" y2="164.795" gradientUnits="userSpaceOnUse">
<stop stop-color="#FF928E"/>
<stop offset="1" stop-color="#FE7062"/>
</linearGradient>
<linearGradient id="paint6_linear" x1="-6.18551" y1="149.406" x2="270.759" y2="-240.835" gradientUnits="userSpaceOnUse">
<stop stop-color="#FF928E"/>
<stop offset="1" stop-color="#FE7062"/>
</linearGradient>
<linearGradient id="paint7_linear" x1="215.138" y1="245.485" x2="204.833" y2="242.176" gradientUnits="userSpaceOnUse">
<stop stop-color="#FEBBBA"/>
<stop offset="1" stop-color="#FF928E"/>
</linearGradient>
<linearGradient id="paint8_linear" x1="142.776" y1="527.867" x2="146.67" y2="549.419" gradientUnits="userSpaceOnUse">
<stop stop-color="#050280"/>
<stop offset="0.1426" stop-color="#040173"/>
<stop offset="0.4026" stop-color="#040166"/>
<stop offset="0.7479" stop-color="#030159"/>
<stop offset="1" stop-color="#03014D"/>
</linearGradient>
<linearGradient id="paint9_linear" x1="142.45" y1="522.201" x2="135.689" y2="518.834" gradientUnits="userSpaceOnUse">
<stop stop-color="#FEBBBA"/>
<stop offset="1" stop-color="#FF928E"/>
</linearGradient>
<linearGradient id="paint10_linear" x1="104.148" y1="536.772" x2="108.042" y2="558.324" gradientUnits="userSpaceOnUse">
<stop stop-color="#050280"/>
<stop offset="0.1426" stop-color="#040173"/>
<stop offset="0.4026" stop-color="#040166"/>
<stop offset="0.7479" stop-color="#030159"/>
<stop offset="1" stop-color="#03014D"/>
</linearGradient>
<linearGradient id="paint11_linear" x1="103.82" y1="531.106" x2="97.0589" y2="527.738" gradientUnits="userSpaceOnUse">
<stop stop-color="#FEBBBA"/>
<stop offset="1" stop-color="#FF928E"/>
</linearGradient>
<linearGradient id="paint12_linear" x1="120.67" y1="437.498" x2="292.213" y2="524.748" gradientUnits="userSpaceOnUse">
<stop stop-color="#050280"/>
<stop offset="0.1426" stop-color="#040173"/>
<stop offset="0.4026" stop-color="#040166"/>
<stop offset="0.7479" stop-color="#030159"/>
<stop offset="1" stop-color="#03014D"/>
</linearGradient>
<linearGradient id="paint13_linear" x1="119.75" y1="437.51" x2="281.628" y2="512.461" gradientUnits="userSpaceOnUse">
<stop stop-color="#050280"/>
<stop offset="0.1426" stop-color="#040173"/>
<stop offset="0.4026" stop-color="#040166"/>
<stop offset="0.7479" stop-color="#030159"/>
<stop offset="1" stop-color="#03014D"/>
</linearGradient>
<linearGradient id="paint14_linear" x1="92.0399" y1="445.284" x2="281.94" y2="555.87" gradientUnits="userSpaceOnUse">
<stop stop-color="#050280"/>
<stop offset="0.1426" stop-color="#040173"/>
<stop offset="0.4026" stop-color="#040166"/>
<stop offset="0.7479" stop-color="#030159"/>
<stop offset="1" stop-color="#03014D"/>
</linearGradient>
<linearGradient id="paint15_linear" x1="157.763" y1="210.676" x2="163.292" y2="257.311" gradientUnits="userSpaceOnUse">
<stop stop-color="#13E6FC"/>
<stop offset="1" stop-color="#0DA3B3"/>
</linearGradient>
<linearGradient id="paint16_linear" x1="89.0371" y1="190.281" x2="105.069" y2="277.182" gradientUnits="userSpaceOnUse">
<stop stop-color="#13E6FC"/>
<stop offset="1" stop-color="#0DA3B3"/>
</linearGradient>
<linearGradient id="paint17_linear" x1="29.9618" y1="378.317" x2="280.233" y2="106.251" gradientUnits="userSpaceOnUse">
<stop stop-color="#FF928E"/>
<stop offset="1" stop-color="#FE7062"/>
</linearGradient>
<linearGradient id="paint18_linear" x1="87.3966" y1="346.958" x2="79.2438" y2="335.02" gradientUnits="userSpaceOnUse">
<stop stop-color="#FEBBBA"/>
<stop offset="1" stop-color="#FF928E"/>
</linearGradient>
<linearGradient id="paint19_linear" x1="49.6468" y1="200.692" x2="68.7327" y2="269.529" gradientUnits="userSpaceOnUse">
<stop stop-color="#13E6FC"/>
<stop offset="1" stop-color="#0DA3B3"/>
</linearGradient>
<linearGradient id="paint20_linear" x1="134.918" y1="224.224" x2="97.5234" y2="190.589" gradientUnits="userSpaceOnUse">
<stop stop-color="#FEBBBA"/>
<stop offset="1" stop-color="#FF928E"/>
</linearGradient>
<linearGradient id="paint21_linear" x1="103.611" y1="231.757" x2="119.109" y2="177.384" gradientUnits="userSpaceOnUse">
<stop stop-color="#444B8C"/>
<stop offset="0.9964" stop-color="#3E4177"/>
</linearGradient>
<linearGradient id="paint22_linear" x1="127.076" y1="205.76" x2="108.185" y2="193.326" gradientUnits="userSpaceOnUse">
<stop stop-color="#FEBBBA"/>
<stop offset="1" stop-color="#FF928E"/>
</linearGradient>
<linearGradient id="paint23_linear" x1="285.299" y1="295.509" x2="582.731" y2="866.858" gradientUnits="userSpaceOnUse">
<stop stop-color="#050280"/>
<stop offset="0.1426" stop-color="#040173"/>
<stop offset="0.4026" stop-color="#040166"/>
<stop offset="0.7479" stop-color="#030159"/>
<stop offset="1" stop-color="#03014D"/>
</linearGradient>
<linearGradient id="paint24_linear" x1="254.762" y1="251.722" x2="434.025" y2="251.722" gradientUnits="userSpaceOnUse">
<stop offset="0.003597" stop-color="#F36F56"/>
<stop offset="1" stop-color="#FFC444"/>
</linearGradient>
<linearGradient id="paint25_linear" x1="248.427" y1="298.805" x2="427.551" y2="298.805" gradientUnits="userSpaceOnUse">
<stop offset="0.003597" stop-color="#F36F56"/>
<stop offset="1" stop-color="#FFC444"/>
</linearGradient>
<linearGradient id="paint26_linear" x1="302.767" y1="373.328" x2="322.277" y2="477.903" gradientUnits="userSpaceOnUse">
<stop stop-color="#050280"/>
<stop offset="0.1426" stop-color="#040173"/>
<stop offset="0.4026" stop-color="#040166"/>
<stop offset="0.7479" stop-color="#030159"/>
<stop offset="1" stop-color="#03014D"/>
</linearGradient>
<linearGradient id="paint27_linear" x1="338.07" y1="181.295" x2="390.254" y2="309.009" gradientUnits="userSpaceOnUse">
<stop stop-color="#050280"/>
<stop offset="0.1426" stop-color="#040173"/>
<stop offset="0.4026" stop-color="#040166"/>
<stop offset="0.7479" stop-color="#030159"/>
<stop offset="1" stop-color="#03014D"/>
</linearGradient>
</defs>
</svg>
